<?xml version="1.0" encoding="utf-8"?>
<!-- Generator: Adobe Illustrator 16.2.1, SVG Export Plug-In . SVG Version: 6.00 Build 0)  -->
<!DOCTYPE svg PUBLIC "-//W3C//DTD SVG 1.1//EN" "http://www.w3.org/Graphics/SVG/1.1/DTD/svg11.dtd">
<svg version="1.1" id="Layer_1" xmlns="http://www.w3.org/2000/svg" xmlns:xlink="http://www.w3.org/1999/xlink" x="0px" y="0px"
	 width="201.333px" height="185.667px" viewBox="319.445 240.14 201.333 185.667"
	 enable-background="new 319.445 240.14 201.333 185.667" xml:space="preserve">
<path fill="#F68C39" stroke="#FECC80" stroke-miterlimit="10" d="M486.497,244.66h-0.005c-22.116-2.442-50.009-2.857-66.229-2.857
	c-15.83,0-42.789,0.391-64.629,2.682l-7.147,0.848c-15.863,2.114-27.569,5.467-27.569,10.763c0,0.866,0.339,1.676,0.929,2.443
	c0.105,0.285,0.19,0.571,0.372,0.833c11.882,16.648,19.901,34.169,25.302,52.123l3.081,11.296
	c5.129,21.444,6.862,43.374,7.043,65.124c-0.2,0.695-0.224,1.419,0.015,2.109c0.023,7.687-0.109,15.354-0.376,22.954
	c-0.067,1.972,1.476,3.629,3.447,3.695h0.124c0.357,0,0.686-0.1,1.015-0.2c-1.067,1.486-0.886,3.543,0.528,4.763
	c0.677,0.581,1.5,0.866,2.324,0.866c1.005,0,2.005-0.424,2.71-1.242l7.896-9.173l8.624,10.377c0.705,0.853,1.725,1.291,2.748,1.291
	c0.805,0,1.614-0.271,2.281-0.824c0.391-0.323,0.686-0.714,0.9-1.143c0.152,0.738,0.485,1.447,1.1,1.977
	c0.677,0.581,1.5,0.866,2.329,0.866c1.005,0,2-0.419,2.705-1.238l8.101-9.396l7.005,8.41c0.705,0.848,1.724,1.285,2.748,1.285
	c0.805,0,1.614-0.271,2.281-0.828c1.514-1.267,1.719-3.515,0.457-5.034l-7.763-9.314l11.229-13.024l9.972,11.867l-8.915,10.22
	c-1.295,1.49-1.143,3.743,0.343,5.043c0.682,0.591,1.51,0.881,2.344,0.881c1,0,1.99-0.414,2.695-1.224l8.182-9.382l7.457,8.872
	c0.705,0.843,1.715,1.276,2.738,1.276c0.81,0,1.624-0.276,2.291-0.838c0.353-0.3,0.619-0.657,0.823-1.038
	c0.215,0.452,0.51,0.876,0.92,1.214c0.671,0.562,1.48,0.839,2.285,0.839c1.024,0,2.039-0.434,2.743-1.276l9.148-10.906l8.291,9.825
	c0.705,0.838,1.715,1.271,2.733,1.271c0.81,0,1.629-0.276,2.296-0.843c1.505-1.276,1.7-3.524,0.429-5.034l-9.092-10.777
	l8.458-10.076c0.043,5.905,0.167,11.791,0.371,17.639c0.067,1.925,1.653,3.448,3.567,3.448h0.124
	c1.972-0.071,3.515-1.724,3.447-3.695c-1.033-29.788-0.438-60.452,6.672-90.178c0.02-0.005,3.153-11.473,3.153-11.473
	c5.405-17.896,13.41-35.364,25.254-51.966c0.333-0.462,0.5-0.972,0.586-1.495c0.138-0.386,0.209-0.781,0.209-1.19
	c0-5.11-10.934-8.415-25.964-10.539L486.497,244.66z M335.525,264.591c10.776,2.48,26.173,3.919,41.603,4.743l-5.053,55.39
	L335.525,264.591z M361.997,345.12c-1.614-12.024-4.076-23.987-7.639-35.793l15.83,26.04L361.997,345.12z M374.708,341.092
	l9.2,10.948l-10.934,13.024l-9.163-10.996L374.708,341.092z M451.819,358.288l10.124,12.101l-11.915,13.663l-10.105-11.978
	L451.819,358.288z M435.26,366.546l-10.435-12.358l11.949-13.877l10.4,12.425L435.26,366.546z M456.552,352.806l9.324-10.815
	l10.248,12.14l-9.424,10.81L456.552,352.806z M451.899,347.254l-10.995-13.14l17.091-50.713l4.239,51.87L451.899,347.254z
	 M437.288,322.485l-12.501-52.118c8.473-0.038,19.149-0.2,30.278-0.647L437.288,322.485z M432.608,333.614
	c-0.02,0.187,0.023,0.362,0.033,0.548l-12.481,14.501l-13.282-15.739l13.253-51.337L432.608,333.614z M393.239,352.04l10.19-12.135
	l12.016,14.234l-10.344,12.016L393.239,352.04z M400.376,371.64l-11.144,12.939l-11.615-13.939l10.954-13.048L400.376,371.64z
	 M402.243,322.304l-16.277-52.562c10.91,0.429,21.35,0.586,29.684,0.624L402.243,322.304z M398.562,334.581l-9.995,11.906
	l-9.844-11.716c-0.015-0.399-0.129-0.78-0.281-1.152l4.505-49.475L398.562,334.581z M368.303,370.622l-3.8,4.524
	c-0.119-3.229-0.296-6.453-0.501-9.687L368.303,370.622z M364.36,413.482c0.01-0.091,0.058-0.162,0.058-0.253
	c0.166-4.733,0.271-9.491,0.333-14.263l5.943,7.153L364.36,413.482z M364.783,387.828c-0.005-0.629-0.01-1.262-0.014-1.886
	l8.181-9.744l11.563,13.873l-9.092,10.558L364.783,387.828z M390.615,418.325c-0.215,0.248-0.324,0.533-0.462,0.814
	c-0.105-0.581-0.306-1.147-0.71-1.638l-9.392-11.301l9.097-10.568l10.334,12.401L390.615,418.325z M404.215,402.548l-10.344-12.4
	l11.163-12.968l10.391,12.372L404.215,402.548z M409.748,371.693l10.358-12.024l10.424,12.358l-10.386,12.038L409.748,371.693z
	 M424.812,389.614l10.396-12.054l10.077,11.943l-10.477,12.006L424.812,389.614z M448.494,416.954
	c-0.177,0.214-0.262,0.467-0.381,0.7c-0.129-0.301-0.258-0.614-0.481-0.882l-8.177-9.729l10.486-12.021l8.496,10.072
	L448.494,416.954z M463.105,399.548l-8.41-9.968l11.892-13.639l8.152,9.739L463.105,399.548z M476.463,376.603l-5.12-6.115
	l5.739-6.586C476.791,368.14,476.601,372.37,476.463,376.603z M484.821,315.209c-0.581,0.886-0.857,1.904-0.762,2.98
	c-2.329,9.287-4.043,18.654-5.243,28.055l-8.354-9.892l15.963-26.835C485.868,311.413,485.33,313.308,484.821,315.209z
	 M468.605,325.51l-4.595-56.21c15.144-0.823,30.192-2.247,40.812-4.671L468.605,325.51z M420.259,263.233
	c-48.056,0-80.367-3.81-89.987-7.144c9.62-3.334,41.932-7.144,89.987-7.144c48.061,0,80.362,3.81,89.987,7.144
	C500.621,259.424,468.315,263.233,420.259,263.233z"/>
</svg>
